<?xml version="1.0" encoding="utf-8"?>
<!-- Generator: Adobe Illustrator 16.0.0, SVG Export Plug-In . SVG Version: 6.00 Build 0)  -->
<!DOCTYPE svg PUBLIC "-//W3C//DTD SVG 1.1//EN" "http://www.w3.org/Graphics/SVG/1.1/DTD/svg11.dtd">
<svg version="1.1" id="图层_1" xmlns="http://www.w3.org/2000/svg" xmlns:xlink="http://www.w3.org/1999/xlink" x="0px" y="0px"
	 width="21px" height="21px" viewBox="0 0 21 21" enable-background="new 0 0 21 21" xml:space="preserve">
<g>
	
		<linearGradient id="SVGID_1_" gradientUnits="userSpaceOnUse" x1="590.8203" y1="839.8926" x2="590.8203" y2="819.9199" gradientTransform="matrix(1 0 0 1 -580.3203 -819.9199)">
		<stop  offset="0" style="stop-color:#EF4704"/>
		<stop  offset="1" style="stop-color:#FA7341"/>
	</linearGradient>
	<path fill="url(#SVGID_1_)" d="M14.561,0.099C12.915,0.476,8.432,1.641,1.555,3.034C0.555,3.235,0.011,4.02,0,4.874v0.048
		c0.002,0.161,0.022,0.321,0.063,0.482l3.354,12.663c0.298,1.115,0.707,2.205,3.685,1.832c6.953-0.746,10.908-2.852,11.679-3.322
		c0.639-0.391,2.209-1.209,2.221-2.824v-0.039c-0.004-0.328-0.071-0.693-0.225-1.09L17.023,1.542C16.726,0.608,16.326,0,15.339,0
		C15.112,0,14.854,0.032,14.561,0.099"/>
	<g>
		<path fill="#F2360B" d="M16.476,6.619l-1.113-2.216c0,0-4.95-0.479-8.812,1.073C2.644,7.049,2.65,9.493,3.075,10.494
			c0.465,1.102,1.482,2.26,7.383,1.561c2.757-0.363,3.007,0.479,3.007,0.479s0.618,0.934-3.075,1.986
			c-2.414,0.643-5.683,0.252-5.683,0.252l0.762,2.225c0,0,4.475,0.602,8.372-0.74c0,0,5.435-1.721,4.41-5.129
			c-0.798-2.279-4.079-2.332-6.621-2.101c0,0-3.741,0.507-3.771-0.708C7.825,6.885,12.18,6.365,16.476,6.619z"/>
	</g>
	<g>
		<path fill="#FFFFFF" d="M16.476,5.869l-1.113-2.217c0,0-4.95-0.479-8.812,1.074C2.644,6.298,2.65,8.742,3.075,9.745
			c0.465,1.102,1.482,2.257,7.383,1.558c2.757-0.361,3.007,0.48,3.007,0.48s0.618,0.934-3.075,1.984
			C7.975,14.41,4.707,14.02,4.707,14.02l0.761,2.227c0,0,4.475,0.602,8.371-0.742c0,0,5.435-1.719,4.412-5.127
			c-0.798-2.279-4.079-2.332-6.621-2.101c0,0-3.742,0.507-3.771-0.708C7.825,6.135,12.18,5.615,16.476,5.869z"/>
	</g>
</g>
</svg>
